<mxfile host="65bd71144e">
    <diagram id="Lv2tGIfRm17ZnLkiNlEx" name="Page-1">
        <mxGraphModel dx="1900" dy="1711" grid="1" gridSize="10" guides="1" tooltips="1" connect="1" arrows="1" fold="1" page="1" pageScale="1" pageWidth="850" pageHeight="1100" math="0" shadow="0">
            <root>
                <mxCell id="0"/>
                <mxCell id="1" parent="0"/>
                <mxCell id="2" value="SAC Algorithm general arquitecture" style="swimlane;whiteSpace=wrap;html=1;startSize=20;" vertex="1" parent="1">
                    <mxGeometry x="-670" y="-1090" width="520" height="370" as="geometry">
                        <mxRectangle x="-664" y="-610" width="230" height="30" as="alternateBounds"/>
                    </mxGeometry>
                </mxCell>
                <mxCell id="3" value="Entorno" style="swimlane;startSize=10;glass=0;dashed=1;dashPattern=8 8;opacity=70;" vertex="1" parent="2">
                    <mxGeometry x="11" y="30" width="160" height="140" as="geometry"/>
                </mxCell>
                <mxCell id="4" style="edgeStyle=none;html=1;exitX=1;exitY=0.75;exitDx=0;exitDy=0;entryX=0;entryY=0.5;entryDx=0;entryDy=0;" edge="1" parent="3" source="6" target="8">
                    <mxGeometry relative="1" as="geometry">
                        <Array as="points">
                            <mxPoint x="79" y="90"/>
                        </Array>
                    </mxGeometry>
                </mxCell>
                <mxCell id="5" style="edgeStyle=none;html=1;exitX=1;exitY=0.25;exitDx=0;exitDy=0;" edge="1" parent="3" source="6" target="7">
                    <mxGeometry relative="1" as="geometry">
                        <Array as="points">
                            <mxPoint x="79" y="50"/>
                        </Array>
                    </mxGeometry>
                </mxCell>
                <mxCell id="6" value="P&lt;sub&gt;t&lt;/sub&gt;" style="rounded=0;whiteSpace=wrap;html=1;fontFamily=Helvetica;fontSize=11;fontColor=default;labelBackgroundColor=default;" vertex="1" parent="3">
                    <mxGeometry x="9" y="45" width="50" height="50" as="geometry"/>
                </mxCell>
                <mxCell id="7" value="&lt;span style=&quot;color: rgb(0, 0, 0); font-size: 11px; background-color: rgb(255, 255, 255);&quot;&gt;S&lt;/span&gt;&lt;sub style=&quot;scrollbar-color: light-dark(#e2e2e2, #4b4b4b)&lt;br/&gt;&#x9;&#x9;&#x9;&#x9;&#x9;light-dark(#fbfbfb, var(--dark-panel-color));&quot;&gt;t&lt;/sub&gt;" style="text;html=1;align=center;verticalAlign=middle;whiteSpace=wrap;rounded=0;" vertex="1" parent="3">
                    <mxGeometry x="100" y="30.5" width="40" height="39.5" as="geometry"/>
                </mxCell>
                <mxCell id="8" value="&lt;span style=&quot;color: rgb(63, 63, 63); font-size: 11px; background-color: rgb(255, 255, 255);&quot;&gt;S&lt;/span&gt;&lt;sub style=&quot;color: rgb(63, 63, 63); scrollbar-color: light-dark(#e2e2e2, #4b4b4b)&lt;br/&gt;&#x9;&#x9;&#x9;&#x9;&#x9;light-dark(#fbfbfb, var(--dark-panel-color)); background-color: rgb(255, 255, 255);&quot;&gt;t+1&lt;/sub&gt;" style="text;html=1;align=center;verticalAlign=middle;whiteSpace=wrap;rounded=0;" vertex="1" parent="3">
                    <mxGeometry x="100" y="70" width="40" height="40" as="geometry"/>
                </mxCell>
                <mxCell id="9" value="Actor" style="swimlane;startSize=10;glass=0;dashed=1;dashPattern=8 8;opacity=70;" vertex="1" parent="2">
                    <mxGeometry x="180" y="30" width="160" height="140" as="geometry"/>
                </mxCell>
                <mxCell id="10" style="edgeStyle=none;html=1;" edge="1" parent="9" source="11" target="12">
                    <mxGeometry relative="1" as="geometry"/>
                </mxCell>
                <mxCell id="11" value="&lt;font style=&quot;font-size: 20px;&quot;&gt;𝝿&lt;/font&gt;&lt;font style=&quot;font-size: 10px;&quot;&gt;(S)&lt;/font&gt;" style="rounded=1;whiteSpace=wrap;html=1;" vertex="1" parent="9">
                    <mxGeometry x="40" y="48" width="40" height="42.5" as="geometry"/>
                </mxCell>
                <mxCell id="12" value="A&lt;sub&gt;t&lt;/sub&gt;" style="text;html=1;align=center;verticalAlign=middle;whiteSpace=wrap;rounded=0;" vertex="1" parent="9">
                    <mxGeometry x="100" y="50" width="40" height="40" as="geometry"/>
                </mxCell>
                <mxCell id="13" value="Critico" style="swimlane;startSize=10;glass=0;dashed=1;dashPattern=8 8;opacity=70;" vertex="1" parent="2">
                    <mxGeometry x="350" y="30" width="160" height="140" as="geometry"/>
                </mxCell>
                <mxCell id="14" style="edgeStyle=orthogonalEdgeStyle;shape=connector;rounded=1;html=1;strokeColor=default;align=center;verticalAlign=middle;fontFamily=Helvetica;fontSize=11;fontColor=default;labelBackgroundColor=default;endArrow=classic;" edge="1" parent="13" source="15" target="16">
                    <mxGeometry relative="1" as="geometry"/>
                </mxCell>
                <mxCell id="15" value="&lt;font style=&quot;font-size: 15px;&quot;&gt;R&lt;/font&gt;&lt;font style=&quot;font-size: 10px;&quot;&gt;(&lt;font style=&quot;&quot;&gt;S,A&lt;/font&gt;)&lt;/font&gt;" style="rounded=1;whiteSpace=wrap;html=1;fontFamily=Helvetica;fontSize=11;fontColor=default;labelBackgroundColor=default;" vertex="1" parent="13">
                    <mxGeometry x="30" y="50.5" width="40" height="40" as="geometry"/>
                </mxCell>
                <mxCell id="16" value="&lt;sub&gt;&lt;font color=&quot;#000000&quot;&gt;&lt;span style=&quot;font-size: 12px;&quot;&gt;R&lt;/span&gt;&lt;/font&gt;t&lt;/sub&gt;" style="text;html=1;align=center;verticalAlign=middle;whiteSpace=wrap;rounded=0;" vertex="1" parent="13">
                    <mxGeometry x="90" y="50" width="40" height="40" as="geometry"/>
                </mxCell>
                <mxCell id="17" value="Buffer" style="swimlane;startSize=15;glass=0;dashed=1;dashPattern=8 8;opacity=70;labelBorderColor=none;labelPosition=center;verticalLabelPosition=middle;align=center;verticalAlign=middle;" vertex="1" parent="2">
                    <mxGeometry x="10" y="185" width="160" height="175" as="geometry"/>
                </mxCell>
                <mxCell id="18" value="&lt;span style=&quot;color: rgb(0, 0, 0);&quot;&gt;S&lt;/span&gt;&lt;sub style=&quot;scrollbar-color: light-dark(#e2e2e2, #4b4b4b)&lt;br/&gt;&#x9;&#x9;&#x9;&#x9;&#x9;light-dark(#fbfbfb, var(--dark-panel-color));&quot;&gt;&amp;nbsp;&lt;/sub&gt;&lt;span style=&quot;scrollbar-color: light-dark(#e2e2e2, #4b4b4b)&lt;br/&gt;&#x9;&#x9;&#x9;&#x9;&#x9;light-dark(#fbfbfb, var(--dark-panel-color)); font-size: 10px; color: rgb(63, 63, 63);&quot;&gt;&lt;sub&gt;𝒯&lt;/sub&gt;,&lt;/span&gt;&lt;span style=&quot;scrollbar-color: light-dark(#e2e2e2, #4b4b4b)&lt;br/&gt;&#x9;&#x9;&#x9;&#x9;&#x9;light-dark(#fbfbfb, var(--dark-panel-color)); color: rgb(63, 63, 63);&quot;&gt;A&lt;/span&gt;&lt;span style=&quot;scrollbar-color: light-dark(#e2e2e2, #4b4b4b)&lt;br/&gt;&#x9;&#x9;&#x9;&#x9;&#x9;light-dark(#fbfbfb, var(--dark-panel-color)); font-size: 10px; color: rgb(63, 63, 63);&quot;&gt;&lt;sub&gt;𝒯&lt;/sub&gt;,&lt;/span&gt;&lt;span style=&quot;scrollbar-color: light-dark(#e2e2e2, #4b4b4b)&lt;br/&gt;&#x9;&#x9;&#x9;&#x9;&#x9;light-dark(#fbfbfb, var(--dark-panel-color)); color: rgb(63, 63, 63);&quot;&gt;R&lt;/span&gt;&lt;span style=&quot;scrollbar-color: light-dark(#e2e2e2, #4b4b4b)&lt;br/&gt;&#x9;&#x9;&#x9;&#x9;&#x9;light-dark(#fbfbfb, var(--dark-panel-color)); font-size: 10px; color: rgb(63, 63, 63);&quot;&gt;&lt;sub&gt;𝒯&lt;/sub&gt;&lt;/span&gt;" style="shape=dataStorage;whiteSpace=wrap;html=1;fixedSize=1;size=10;" vertex="1" parent="17">
                    <mxGeometry x="26" y="30" width="110" height="80" as="geometry"/>
                </mxCell>
                <mxCell id="19" value="&lt;span style=&quot;scrollbar-color: light-dark(#e2e2e2, #4b4b4b)&lt;br/&gt;&#x9;&#x9;&#x9;&#x9;&#x9;light-dark(#fbfbfb, var(--dark-panel-color)); color: rgb(0, 0, 0);&quot;&gt;S&lt;sub&gt;B&lt;/sub&gt;&lt;/span&gt;&lt;span style=&quot;scrollbar-color: light-dark(#e2e2e2, #4b4b4b)&lt;br/&gt;&#x9;&#x9;&#x9;&#x9;&#x9;light-dark(#fbfbfb, var(--dark-panel-color)); font-size: 10px; color: rgb(63, 63, 63);&quot;&gt;,&lt;/span&gt;&lt;span style=&quot;scrollbar-color: light-dark(#e2e2e2, #4b4b4b)&lt;br/&gt;&#x9;&#x9;&#x9;&#x9;&#x9;light-dark(#fbfbfb, var(--dark-panel-color)); color: rgb(63, 63, 63);&quot;&gt;A&lt;sub&gt;B&lt;/sub&gt;&lt;/span&gt;&lt;span style=&quot;scrollbar-color: light-dark(#e2e2e2, #4b4b4b)&lt;br/&gt;&#x9;&#x9;&#x9;&#x9;&#x9;light-dark(#fbfbfb, var(--dark-panel-color)); font-size: 10px; color: rgb(63, 63, 63);&quot;&gt;,&lt;/span&gt;&lt;span style=&quot;scrollbar-color: light-dark(#e2e2e2, #4b4b4b)&lt;br/&gt;&#x9;&#x9;&#x9;&#x9;&#x9;light-dark(#fbfbfb, var(--dark-panel-color)); color: rgb(63, 63, 63);&quot;&gt;R&lt;sub&gt;B&lt;/sub&gt;&lt;/span&gt;" style="text;html=1;align=center;verticalAlign=middle;whiteSpace=wrap;rounded=0;" vertex="1" parent="17">
                    <mxGeometry x="41" y="125" width="80" height="40" as="geometry"/>
                </mxCell>
                <mxCell id="20" style="edgeStyle=orthogonalEdgeStyle;html=1;exitX=1;exitY=0.75;exitDx=0;exitDy=0;entryX=0.5;entryY=0;entryDx=0;entryDy=0;" edge="1" parent="17" source="18" target="19">
                    <mxGeometry relative="1" as="geometry">
                        <Array as="points">
                            <mxPoint x="146" y="90"/>
                            <mxPoint x="146" y="115"/>
                            <mxPoint x="81" y="115"/>
                        </Array>
                    </mxGeometry>
                </mxCell>
                <mxCell id="21" value="Off-Policy training algorithm" style="swimlane;startSize=15;glass=0;dashed=1;dashPattern=8 8;opacity=70;" vertex="1" parent="2">
                    <mxGeometry x="190" y="185" width="320" height="175" as="geometry"/>
                </mxCell>
                <mxCell id="22" style="edgeStyle=none;html=1;exitX=1;exitY=0.5;exitDx=0;exitDy=0;" edge="1" parent="21" source="23" target="27">
                    <mxGeometry relative="1" as="geometry"/>
                </mxCell>
                <mxCell id="23" value="Actualizacion Parametros Redes Q&lt;sub&gt;ⲫ&lt;/sub&gt;" style="rounded=1;whiteSpace=wrap;html=1;arcSize=23;" vertex="1" parent="21">
                    <mxGeometry x="40" y="75" width="80" height="80" as="geometry"/>
                </mxCell>
                <mxCell id="24" style="edgeStyle=none;html=1;exitX=0.5;exitY=0;exitDx=0;exitDy=0;" edge="1" parent="21" source="25" target="28">
                    <mxGeometry relative="1" as="geometry"/>
                </mxCell>
                <mxCell id="25" value="Actualizacion de red&amp;nbsp;&lt;span style=&quot;color: rgb(63, 63, 63); font-size: 20px;&quot;&gt;𝝿&lt;/span&gt;&lt;span style=&quot;font-size: 20px;&quot;&gt;&lt;sub&gt;𝟇&lt;/sub&gt;&lt;/span&gt;" style="rounded=1;whiteSpace=wrap;html=1;" vertex="1" parent="21">
                    <mxGeometry x="200" y="75" width="80" height="80" as="geometry"/>
                </mxCell>
                <mxCell id="26" style="edgeStyle=none;html=1;exitX=1;exitY=0.5;exitDx=0;exitDy=0;entryX=0;entryY=0.5;entryDx=0;entryDy=0;" edge="1" parent="21" source="27" target="25">
                    <mxGeometry relative="1" as="geometry"/>
                </mxCell>
                <mxCell id="27" value="&lt;span style=&quot;color: rgb(0, 0, 0);&quot;&gt;Q&lt;sub&gt;ⲫ&lt;/sub&gt;&lt;br&gt;&lt;span style=&quot;scrollbar-color: light-dark(#e2e2e2, #4b4b4b)&lt;br/&gt;&#x9;&#x9;&#x9;&#x9;&#x9;light-dark(#fbfbfb, var(--dark-panel-color)); color: rgb(0, 0, 0);&quot;&gt;S&lt;sub style=&quot;scrollbar-color: light-dark(#e2e2e2, #4b4b4b)&lt;br/&gt;&#x9;&#x9;&#x9;&#x9;&#x9;light-dark(#fbfbfb, var(--dark-panel-color));&quot;&gt;b&lt;/sub&gt;&lt;/span&gt;&lt;span style=&quot;scrollbar-color: light-dark(#e2e2e2, #4b4b4b)&lt;br/&gt;&#x9;&#x9;&#x9;&#x9;&#x9;light-dark(#fbfbfb, var(--dark-panel-color)); font-size: 10px; color: rgb(63, 63, 63);&quot;&gt;,&lt;/span&gt;&lt;br&gt;&lt;/span&gt;" style="text;html=1;align=center;verticalAlign=middle;whiteSpace=wrap;rounded=0;" vertex="1" parent="21">
                    <mxGeometry x="140" y="95" width="40" height="40" as="geometry"/>
                </mxCell>
                <mxCell id="28" value="&lt;span style=&quot;scrollbar-color: light-dark(#e2e2e2, #4b4b4b)&lt;br/&gt;&#x9;&#x9;&#x9;&#x9;&#x9;light-dark(#fbfbfb, var(--dark-panel-color)); font-size: 20px; color: rgb(63, 63, 63);&quot;&gt;&lt;font style=&quot;scrollbar-color: light-dark(#e2e2e2, #4b4b4b)&lt;br/&gt;&#x9;&#x9;&#x9;&#x9;&#x9;light-dark(#fbfbfb, var(--dark-panel-color));&quot;&gt;𝝿&lt;/font&gt;&lt;font style=&quot;scrollbar-color: light-dark(#e2e2e2, #4b4b4b)&lt;br/&gt;&#x9;&#x9;&#x9;&#x9;&#x9;light-dark(#fbfbfb, var(--dark-panel-color)); font-size: 10px;&quot;&gt;(S)&amp;nbsp; &amp;nbsp; &amp;nbsp;&lt;/font&gt;𝝿&lt;/span&gt;&lt;span style=&quot;scrollbar-color: light-dark(#e2e2e2, #4b4b4b)&lt;br/&gt;&#x9;&#x9;&#x9;&#x9;&#x9;light-dark(#fbfbfb, var(--dark-panel-color)); font-size: 20px;&quot;&gt;&lt;sub style=&quot;scrollbar-color: light-dark(#e2e2e2, #4b4b4b)&lt;br/&gt;&#x9;&#x9;&#x9;&#x9;&#x9;light-dark(#fbfbfb, var(--dark-panel-color));&quot;&gt;𝟇&lt;/sub&gt;&lt;/span&gt;" style="text;html=1;align=center;verticalAlign=middle;whiteSpace=wrap;rounded=0;" vertex="1" parent="21">
                    <mxGeometry x="200" y="15" width="80" height="40" as="geometry"/>
                </mxCell>
                <mxCell id="29" style="edgeStyle=orthogonalEdgeStyle;shape=connector;rounded=1;html=1;exitX=1;exitY=0.5;exitDx=0;exitDy=0;entryX=0;entryY=0.5;entryDx=0;entryDy=0;strokeColor=default;align=center;verticalAlign=middle;fontFamily=Helvetica;fontSize=11;fontColor=default;labelBackgroundColor=default;endArrow=classic;" edge="1" parent="2" source="12" target="15">
                    <mxGeometry relative="1" as="geometry"/>
                </mxCell>
                <mxCell id="30" style="edgeStyle=orthogonalEdgeStyle;html=1;exitX=0.5;exitY=1;exitDx=0;exitDy=0;entryX=1;entryY=0.25;entryDx=0;entryDy=0;" edge="1" parent="2" source="12" target="18">
                    <mxGeometry relative="1" as="geometry">
                        <Array as="points">
                            <mxPoint x="300" y="160"/>
                            <mxPoint x="160" y="160"/>
                            <mxPoint x="160" y="235"/>
                        </Array>
                    </mxGeometry>
                </mxCell>
                <mxCell id="31" style="edgeStyle=orthogonalEdgeStyle;html=1;exitX=0.5;exitY=1;exitDx=0;exitDy=0;entryX=1;entryY=0.5;entryDx=0;entryDy=0;" edge="1" parent="2" source="16" target="18">
                    <mxGeometry relative="1" as="geometry">
                        <Array as="points">
                            <mxPoint x="460" y="180"/>
                            <mxPoint x="170" y="180"/>
                            <mxPoint x="170" y="255"/>
                        </Array>
                    </mxGeometry>
                </mxCell>
                <mxCell id="32" style="edgeStyle=none;html=1;exitX=1;exitY=0.5;exitDx=0;exitDy=0;entryX=0.5;entryY=0;entryDx=0;entryDy=0;" edge="1" parent="2" source="28" target="11">
                    <mxGeometry relative="1" as="geometry">
                        <Array as="points">
                            <mxPoint x="480" y="220"/>
                            <mxPoint x="480" y="60"/>
                            <mxPoint x="240" y="60"/>
                        </Array>
                    </mxGeometry>
                </mxCell>
                <mxCell id="33" style="edgeStyle=none;html=1;exitX=1;exitY=0.5;exitDx=0;exitDy=0;entryX=0;entryY=0.5;entryDx=0;entryDy=0;" edge="1" parent="2" source="7" target="11">
                    <mxGeometry relative="1" as="geometry">
                        <Array as="points">
                            <mxPoint x="190" y="80"/>
                            <mxPoint x="190" y="99"/>
                        </Array>
                    </mxGeometry>
                </mxCell>
                <mxCell id="34" style="edgeStyle=orthogonalEdgeStyle;html=1;entryX=0.5;entryY=1;entryDx=0;entryDy=0;" edge="1" parent="2" source="8" target="15">
                    <mxGeometry relative="1" as="geometry">
                        <Array as="points">
                            <mxPoint x="190" y="120"/>
                            <mxPoint x="190" y="140"/>
                            <mxPoint x="400" y="140"/>
                        </Array>
                    </mxGeometry>
                </mxCell>
                <mxCell id="35" style="edgeStyle=orthogonalEdgeStyle;html=1;exitX=0.5;exitY=1;exitDx=0;exitDy=0;entryX=0.5;entryY=1;entryDx=0;entryDy=0;" edge="1" parent="2" source="12" target="6">
                    <mxGeometry relative="1" as="geometry">
                        <Array as="points">
                            <mxPoint x="300" y="160"/>
                            <mxPoint x="45" y="160"/>
                        </Array>
                    </mxGeometry>
                </mxCell>
                <mxCell id="36" style="edgeStyle=orthogonalEdgeStyle;html=1;entryX=0.75;entryY=0;entryDx=0;entryDy=0;" edge="1" parent="2" source="8" target="18">
                    <mxGeometry relative="1" as="geometry"/>
                </mxCell>
                <mxCell id="37" style="edgeStyle=orthogonalEdgeStyle;html=1;exitX=1;exitY=0.5;exitDx=0;exitDy=0;" edge="1" parent="2" source="19" target="23">
                    <mxGeometry relative="1" as="geometry">
                        <Array as="points">
                            <mxPoint x="180" y="330"/>
                            <mxPoint x="180" y="310"/>
                        </Array>
                    </mxGeometry>
                </mxCell>
            </root>
        </mxGraphModel>
    </diagram>
</mxfile>